<svg width="112" height="128" viewBox="0 0 112 128" fill="none" xmlns="http://www.w3.org/2000/svg">
<g clip-path="url(#clip0_63_269)">
<path d="M9.83912 115.205L-0.432129 0H112.432L102.15 115.187L55.9309 128L9.83912 115.205Z" fill="black"/>
<path d="M93.347 107.852L102.134 9.4195H56V118.206L93.347 107.852Z" fill="#3C3C3C"/>
<path d="M23.1151 52.1475L24.3813 66.2768H56.0001V52.1475H23.1151ZM21.8548 37.6788H56.0001V23.5493H20.5703L21.8548 37.6788ZM56.0001 88.843L55.9381 88.8595L40.2021 84.6105L39.1963 73.3415H25.0123L26.9921 95.5268L55.9351 103.562L56.0001 103.544V88.843Z" fill="#EBEBEB"/>
<path d="M55.9512 52.1475V66.2768H73.3499L71.7099 84.6015L55.9512 88.8548V103.555L84.9172 95.5268L85.1297 93.1395L88.4497 55.9415L88.7947 52.1475L91.3454 23.5493H55.9512V37.6788H75.8609L74.5749 52.1475H55.9512Z" fill="white"/>
</g>
<defs>
<clipPath id="clip0_63_269">
<rect width="112" height="128" fill="white"/>
</clipPath>
</defs>
</svg>
