<svg width="112" height="128" viewBox="0 0 112 128" fill="none" xmlns="http://www.w3.org/2000/svg">
<g clip-path="url(#clip0_63_274)">
<path d="M9.75 115L-0.5 0H112.25L102 115L55.75 128" fill="black"/>
<path d="M56 118L93.25 107.75L102 9.25H56" fill="#3C3C3C"/>
<path d="M56 52H37.25L36 37.5H56V23.5H55.75H20.5L20.75 27.25L24.25 66.25H56V52ZM56 88.75H55.75L40 84.5L39 73.25H31.5H25L26.75 95.5L55.75 103.5H56V88.75Z" fill="#EBEBEB"/>
<path d="M55.75 52V66.25H73.25L71.5 84.5L55.75 88.75V103.5L84.75 95.5L85 93L88.25 55.75L88.75 52H84.75H55.75ZM55.75 23.5V32.25V37.5H90L90.25 34.5L91 27.25L91.25 23.5H55.75Z" fill="white"/>
</g>
<defs>
<clipPath id="clip0_63_274">
<rect width="112" height="128" fill="white"/>
</clipPath>
</defs>
</svg>
