<svg width="48" height="48" viewBox="0 0 48 48" fill="none" xmlns="http://www.w3.org/2000/svg">
<path fill-rule="evenodd" clip-rule="evenodd" d="M22.6304 0.0172294C22.495 0.0326226 22.0362 0.079569 21.6108 0.1215C17.7014 0.507166 13.6074 2.04712 10.2544 4.39302C8.60582 5.54646 6.51506 7.49108 5.3046 8.9969C2.46852 12.5249 0.824198 16.3862 0.158215 21.0816C-0.0806564 22.7662 -0.0453566 25.5662 0.239152 27.487C1.56732 36.4562 7.86222 43.9222 16.5127 46.7886C18.1165 47.32 19.6067 47.6546 21.5052 47.9098C22.4042 48.0304 26.0256 48.03 26.9198 47.909C29.6912 47.5342 31.7388 46.9894 33.9516 46.0384C39.9568 43.4574 44.787 38.3792 47.0022 32.3174C47.3348 31.4072 47.7096 30.1736 47.8698 29.4618L48 28.8828H41.7148H35.4298L35.1124 29.5084C33.9342 31.8324 31.9782 33.746 29.627 34.8752C26.177 36.5322 22.1786 36.5144 18.8028 34.8268C12.748 31.8002 10.3004 24.5684 13.3181 18.6218C14.5724 16.1503 16.4722 14.3027 18.9898 13.106C22.4228 11.4742 26.2318 11.5135 29.6974 13.2163C30.985 13.849 31.8284 14.4509 32.8618 15.4745C33.8154 16.4191 34.4676 17.2886 35.0432 18.3826L35.4372 19.1314H41.731C47.692 19.1314 48.0228 19.1249 47.9882 19.0095C47.968 18.9424 47.9014 18.6682 47.8402 18.4C46.546 12.7375 42.7524 7.33736 37.7488 4.03528C34.4854 1.88162 31.2836 0.71494 26.9902 0.114883C26.459 0.0407028 23.0884 -0.034801 22.6304 0.0172294Z" fill="#204B45"/>
</svg>
