<svg width="128" height="116" viewBox="0 0 128 116" fill="none" xmlns="http://www.w3.org/2000/svg">
<g clip-path="url(#clip0_63_256)">
<path d="M64 69.7905C70.7327 69.7905 76.1905 64.3326 76.1905 57.6C76.1905 50.8674 70.7327 45.4095 64 45.4095C57.2674 45.4095 51.8096 50.8674 51.8096 57.6C51.8096 64.3326 57.2674 69.7905 64 69.7905Z" fill="white"/>
<path d="M64.0002 85.0286C97.6633 85.0286 124.953 72.7484 124.953 57.6C124.953 42.4516 97.6633 30.1714 64.0002 30.1714C30.3372 30.1714 3.04785 42.4516 3.04785 57.6C3.04785 72.7484 30.3372 85.0286 64.0002 85.0286Z" stroke="white" stroke-width="5"/>
<path d="M40.2463 71.3143C57.0779 100.467 81.3575 117.96 94.4764 110.386C107.595 102.812 104.586 73.0388 87.754 43.8857C70.9225 14.7326 46.6429 -2.76051 33.524 4.81368C20.4051 12.3879 23.4148 42.1612 40.2463 71.3143Z" stroke="white" stroke-width="5"/>
<path d="M40.2466 43.8857C23.4151 73.0388 20.4054 102.812 33.5242 110.386C46.6431 117.96 70.9227 100.467 87.7543 71.3143C104.586 42.1612 107.596 12.3879 94.4766 4.81367C81.3577 -2.76052 57.0781 14.7326 40.2466 43.8857Z" stroke="white" stroke-width="5"/>
</g>
<defs>
<clipPath id="clip0_63_256">
<rect width="128" height="115.2" fill="white"/>
</clipPath>
</defs>
</svg>
