<svg width="128" height="140" viewBox="0 0 128 140" fill="none" xmlns="http://www.w3.org/2000/svg">
<path d="M126.604 56.2342C126.604 47.87 116.129 39.9431 100.07 35.0275C103.776 18.659 102.129 5.63634 94.8706 1.46699C93.1976 0.488998 91.2421 0.0257241 89.1058 0.0257241V5.76502C90.2896 5.76502 91.2421 5.99666 92.0397 6.43415C95.5399 8.44159 97.0586 16.0854 95.8742 25.9167C95.5917 28.336 95.1284 30.8839 94.5621 33.4833C89.5173 32.2479 84.0098 31.2957 78.2192 30.678C74.7449 25.9167 71.1418 21.593 67.5127 17.8097C75.9028 10.0115 83.7785 5.73924 89.1317 5.73924V0C82.0537 0 72.7888 5.04439 63.4209 13.7948C54.0524 5.09584 44.7875 0.102956 37.7101 0.102956V5.84219C43.0375 5.84219 50.9384 10.0888 59.3286 17.8355C55.7254 21.6188 52.1222 25.9167 48.6992 30.678C42.8827 31.2957 37.3752 32.2479 32.331 33.509C31.7388 30.9354 31.3014 28.4389 30.9923 26.0454C29.7832 16.2141 31.2755 8.57027 34.7503 6.5371C35.5221 6.07383 36.5257 5.86798 37.7101 5.86798V0.12868C35.548 0.12868 33.5919 0.591954 31.8936 1.56995C24.6613 5.73924 23.0402 18.7362 26.7717 35.0532C10.7636 39.9947 0.340332 47.8959 0.340332 56.2342C0.340332 64.599 10.8151 72.5259 26.8747 77.4412C23.1685 93.81 24.8156 106.832 32.0737 111.002C33.7467 111.98 35.7022 112.443 37.8643 112.443C44.9418 112.443 54.2072 107.399 63.5752 98.6482C72.9431 107.347 82.2085 112.34 89.286 112.34C91.4475 112.34 93.4036 111.877 95.1025 110.899C102.334 106.729 103.956 93.7323 100.224 77.4159C116.181 72.5 126.604 64.5731 126.604 56.2342ZM93.0952 39.0681C92.1427 42.3884 90.9589 45.8108 89.6203 49.2339C88.5655 47.1753 87.4588 45.1162 86.2491 43.0571C85.0653 40.9984 83.8038 38.9909 82.5429 37.0349C86.1973 37.5754 89.7234 38.2446 93.0952 39.0681ZM81.3073 66.4774C79.3 69.9523 77.2414 73.2464 75.1052 76.3092C71.2701 76.6436 67.3844 76.8237 63.4721 76.8237C59.5858 76.8237 55.6995 76.6436 51.8909 76.3345C49.7546 73.2717 47.6696 70.0035 45.6623 66.5546C43.7062 63.1833 41.9308 59.7603 40.309 56.3119C41.9049 52.863 43.7062 49.414 45.637 46.0428C47.6443 42.5685 49.7028 39.274 51.8391 36.2114C55.6742 35.8768 59.5599 35.6966 63.4721 35.6966C67.3585 35.6966 71.2448 35.8768 75.0534 36.1856C77.1896 39.2483 79.2747 42.5167 81.282 45.9656C83.2381 49.3369 85.0135 52.7599 86.6352 56.2089C85.0135 59.6572 83.2381 63.1062 81.3073 66.4774ZM89.6203 63.1321C90.9714 66.4861 92.1568 69.9044 93.1723 73.3748C89.8005 74.1983 86.2491 74.8935 82.5688 75.4339C83.8297 73.4524 85.0906 71.4192 86.275 69.3342C87.4588 67.2757 88.5655 65.1906 89.6203 63.1321ZM63.5234 90.593C61.1299 88.1218 58.7364 85.3681 56.3688 82.3571C58.6852 82.4601 61.0528 82.5372 63.4462 82.5372C65.8656 82.5372 68.2591 82.486 70.6014 82.3571C68.3922 85.2279 66.0294 87.9772 63.5234 90.593ZM44.3755 75.4339C40.7211 74.8935 37.195 74.2242 33.8238 73.4007C34.7757 70.0806 35.96 66.6576 37.298 63.2345C38.3535 65.2936 39.4602 67.3528 40.6693 69.4113C41.879 71.4704 43.1146 73.4778 44.3755 75.4339ZM63.395 21.8761C65.7885 24.3468 68.182 27.1006 70.5496 30.1118C68.2332 30.0088 65.8656 29.9317 63.4721 29.9317C61.0528 29.9317 58.6593 29.9831 56.3176 30.1118C58.5266 27.241 60.8892 24.4918 63.395 21.8761ZM44.3496 37.0349C43.0887 39.0167 41.8278 41.0498 40.644 43.1342C39.4602 45.1933 38.3535 47.2525 37.298 49.311C35.9469 45.957 34.7617 42.5386 33.7467 39.0681C37.1179 38.2703 40.6693 37.5754 44.3496 37.0349ZM21.0582 69.2571C11.9475 65.3708 6.05385 60.2753 6.05385 56.2342C6.05385 52.1937 11.9475 47.0723 21.0582 43.2119C23.2715 42.2595 25.6909 41.4101 28.1874 40.6123C29.6543 45.6566 31.5845 50.9068 33.978 56.286C31.6104 61.6393 29.7055 66.8636 28.2645 71.8825C25.7168 71.0843 23.2974 70.2095 21.0582 69.2571ZM34.9046 106.035C31.4044 104.027 29.8857 96.3836 31.07 86.5519C31.3532 84.1331 31.8159 81.5848 32.3822 78.9853C37.427 80.2208 42.9344 81.1733 48.7251 81.7908C52.1993 86.5519 55.8025 90.8755 59.4316 94.6589C51.0415 102.457 43.1658 106.729 37.8125 106.729C36.6546 106.704 35.6769 106.472 34.9046 106.035ZM95.9519 86.4235C97.161 96.2547 95.6688 103.898 92.194 105.932C91.4222 106.395 90.4185 106.601 89.2342 106.601C83.9068 106.601 76.0058 102.354 67.6157 94.6076C71.2189 90.8243 74.8221 86.5265 78.2451 81.7649C84.0616 81.1474 89.5691 80.1949 94.6133 78.934C95.2055 81.5335 95.6688 84.03 95.9519 86.4235ZM105.86 69.2571C103.647 70.2095 101.227 71.059 98.731 71.8566C97.2641 66.8124 95.3339 61.5621 92.9404 56.183C95.3085 50.8297 97.2128 45.6054 98.6539 40.5866C101.202 41.3844 103.621 42.2595 105.886 43.2119C114.997 47.0976 120.89 52.1937 120.89 56.2342C120.865 60.2753 114.971 65.3967 105.86 69.2571Z" fill="white"/>
<path d="M63.4462 67.9962C69.9423 67.9962 75.2081 62.7304 75.2081 56.2342C75.2081 49.7386 69.9423 44.4728 63.4462 44.4728C56.9505 44.4728 51.6848 49.7386 51.6848 56.2342C51.6848 62.7304 56.9505 67.9962 63.4462 67.9962ZM6.0736 132.694H2.19102V139.381H0V122.851H5.47192C7.3337 122.851 8.76416 123.275 9.76316 124.123C10.7698 124.97 11.2731 126.204 11.2731 127.824C11.2731 128.853 10.993 129.75 10.433 130.515C9.8805 131.279 9.10853 131.85 8.11707 132.228L11.9996 139.244V139.381H9.66101L6.0736 132.694ZM2.19102 130.912H5.54006C6.62234 130.912 7.48132 130.631 8.11707 130.071C8.76036 129.511 9.082 128.762 9.082 127.824C9.082 126.802 8.77549 126.019 8.16248 125.474C7.557 124.929 6.67908 124.653 5.52867 124.645H2.19102V130.912ZM19.1066 139.608C17.4413 139.608 16.0865 139.063 15.0421 137.973C13.9977 136.875 13.4754 135.411 13.4754 133.58V133.193C13.4754 131.975 13.7063 130.889 14.1679 129.936C14.6372 128.974 15.2881 128.225 16.1206 127.688C16.9607 127.143 17.8689 126.87 18.8452 126.87C20.4423 126.87 21.6836 127.396 22.5687 128.448C23.4544 129.5 23.897 131.006 23.897 132.966V133.84H15.5757C15.6059 135.052 15.9579 136.032 16.6315 136.781C17.3126 137.522 18.1754 137.894 19.2199 137.894C19.9617 137.894 20.5896 137.742 21.1041 137.439C21.6192 137.137 22.0692 136.736 22.4554 136.236L23.7381 137.235C22.7086 138.817 21.1651 139.608 19.1066 139.608ZM18.8452 128.596C17.9976 128.596 17.2861 128.906 16.7109 129.526C16.1357 130.14 15.78 131.003 15.6438 132.115H21.797V131.956C21.7366 130.889 21.4488 130.064 20.9343 129.481C20.4193 128.891 19.7229 128.596 18.8452 128.596ZM33.9215 139.381C33.8001 139.138 33.7017 138.707 33.6263 138.086C32.6497 139.1 31.4843 139.608 30.1296 139.608C28.9187 139.608 27.9237 139.267 27.1439 138.586C26.3722 137.897 25.986 137.027 25.986 135.975C25.986 134.696 26.4706 133.704 27.4391 133.001C28.4152 132.289 29.7854 131.933 31.5488 131.933H33.5923V130.969C33.5923 130.234 33.3725 129.651 32.934 129.22C32.4949 128.781 31.8474 128.562 30.9923 128.562C30.243 128.562 29.6151 128.751 29.1081 129.129C28.6011 129.507 28.3473 129.966 28.3473 130.503H26.2358C26.2358 129.89 26.4516 129.3 26.8826 128.732C27.3217 128.157 27.9122 127.703 28.654 127.369C29.4033 127.037 30.224 126.87 31.1171 126.87C32.5329 126.87 33.6413 127.226 34.4435 127.937C35.2457 128.641 35.6618 129.614 35.6923 130.855V136.508C35.6923 137.636 35.8362 138.533 36.1239 139.199V139.381H33.9215ZM30.4363 137.78C31.0947 137.78 31.7191 137.61 32.3096 137.269C32.8994 136.928 33.327 136.486 33.5923 135.941V133.421H31.9458C29.3728 133.421 28.086 134.174 28.086 135.68C28.086 136.338 28.3058 136.853 28.7444 137.224C29.1835 137.594 29.7475 137.78 30.4363 137.78ZM43.9115 137.894C44.6608 137.894 45.3158 137.666 45.8757 137.212C46.4357 136.758 46.7459 136.191 46.8063 135.509H48.7935C48.7555 136.213 48.5132 136.883 48.0666 137.519C47.62 138.155 47.0221 138.662 46.2728 139.04C45.531 139.419 44.7443 139.608 43.9115 139.608C42.2392 139.608 40.9069 139.051 39.9153 137.939C38.9318 136.818 38.4397 135.29 38.4397 133.352V133.001C38.4397 131.805 38.659 130.741 39.0981 129.811C39.5372 128.88 40.1651 128.157 40.9828 127.642C41.8075 127.127 42.7801 126.87 43.9 126.87C45.2778 126.87 46.4207 127.283 47.3288 128.108C48.2444 128.932 48.7325 130.003 48.7935 131.32H46.8063C46.7459 130.525 46.4431 129.875 45.8982 129.368C45.3612 128.853 44.6948 128.596 43.9 128.596C42.8331 128.596 42.0043 128.981 41.4139 129.754C40.8315 130.518 40.5397 131.627 40.5397 133.08V133.477C40.5397 134.892 40.8315 135.982 41.4139 136.747C41.9969 137.511 42.8296 137.894 43.9115 137.894ZM54.004 124.123V127.097H56.2973V128.721H54.004V136.338C54.004 136.83 54.1064 137.201 54.3107 137.45C54.515 137.693 54.8632 137.814 55.3553 137.814C55.597 137.814 55.9302 137.769 56.3537 137.678V139.381C55.8013 139.532 55.2643 139.608 54.7418 139.608C53.8037 139.608 53.0959 139.324 52.6188 138.756C52.1423 138.189 51.904 137.382 51.904 136.338V128.721H49.6671V127.097H51.904V124.123H54.004ZM77.5607 139.381H75.3693L67.0482 126.643V139.381H64.8573V122.851H67.0482L75.3923 135.646V122.851H77.5607V139.381ZM88.6862 139.381C88.5648 139.138 88.4664 138.707 88.391 138.086C87.4144 139.1 86.249 139.608 84.8943 139.608C83.6834 139.608 82.6878 139.267 81.9086 138.586C81.1369 137.897 80.7507 137.027 80.7507 135.975C80.7507 134.696 81.2347 133.704 82.2038 133.001C83.1799 132.289 84.5501 131.933 86.3134 131.933H88.357V130.969C88.357 130.234 88.1372 129.651 87.6981 129.22C87.2596 128.781 86.6121 128.562 85.7569 128.562C85.0076 128.562 84.3798 128.751 83.8728 129.129C83.3658 129.507 83.112 129.966 83.112 130.503H81.0005C81.0005 129.89 81.2163 129.3 81.6473 128.732C82.0864 128.157 82.6769 127.703 83.4187 127.369C84.168 127.037 84.9886 126.87 85.8818 126.87C87.297 126.87 88.4059 127.226 89.2082 127.937C90.0104 128.641 90.4265 129.614 90.457 130.855V136.508C90.457 137.636 90.6009 138.533 90.8886 139.199V139.381H88.6862ZM85.201 137.78C85.8594 137.78 86.4838 137.61 87.0743 137.269C87.6641 136.928 88.0917 136.486 88.357 135.941V133.421H86.7105C84.1375 133.421 82.8507 134.174 82.8507 135.68C82.8507 136.338 83.0705 136.853 83.5091 137.224C83.9482 137.594 84.5121 137.78 85.201 137.78ZM96.5987 124.123V127.097H98.892V128.721H96.5987V136.338C96.5987 136.83 96.7011 137.201 96.9054 137.45C97.1097 137.693 97.4579 137.814 97.95 137.814C98.1917 137.814 98.5249 137.769 98.949 137.678V139.381C98.396 139.532 97.859 139.608 97.3365 139.608C96.3984 139.608 95.6906 139.324 95.2135 138.756C94.737 138.189 94.4987 137.382 94.4987 136.338V128.721H92.2623V127.097H94.4987V124.123H96.5987ZM103.638 139.381H101.537V127.097H103.638V139.381ZM101.367 123.839C101.367 123.499 101.469 123.211 101.673 122.976C101.885 122.741 102.195 122.624 102.604 122.624C103.013 122.624 103.323 122.741 103.535 122.976C103.747 123.211 103.853 123.499 103.853 123.839C103.853 124.179 103.747 124.463 103.535 124.691C103.323 124.917 103.013 125.031 102.604 125.031C102.195 125.031 101.885 124.917 101.673 124.691C101.469 124.463 101.367 124.179 101.367 123.839ZM111.062 136.531L114.104 127.097H116.25L111.845 139.381H110.244L105.795 127.097H107.94L111.062 136.531ZM123.209 139.608C121.544 139.608 120.189 139.063 119.145 137.973C118.1 136.875 117.578 135.411 117.578 133.58V133.193C117.578 131.975 117.809 130.889 118.271 129.936C118.74 128.974 119.391 128.225 120.223 127.688C121.064 127.143 121.972 126.87 122.948 126.87C124.545 126.87 125.786 127.396 126.672 128.448C127.557 129.5 128 131.006 128 132.966V133.84H119.678C119.709 135.052 120.06 136.032 120.734 136.781C121.415 137.522 122.278 137.894 123.322 137.894C124.064 137.894 124.693 137.742 125.207 137.439C125.722 137.137 126.172 136.736 126.558 136.236L127.841 137.235C126.812 138.817 125.268 139.608 123.209 139.608ZM122.948 128.596C122.101 128.596 121.389 128.906 120.814 129.526C120.238 130.14 119.883 131.003 119.747 132.115H125.899V131.956C125.839 130.889 125.551 130.064 125.037 129.481C124.522 128.891 123.826 128.596 122.948 128.596Z" fill="white"/>
</svg>
