<svg width="323" height="323" viewBox="0 0 323 323" fill="none" xmlns="http://www.w3.org/2000/svg">
<path d="M110.218 256.942C109.871 257.972 109.98 258.952 110.546 259.88C111.111 260.809 111.991 261.556 113.185 262.122C114.057 262.536 114.888 262.757 115.677 262.785C116.459 262.81 117.15 262.662 117.75 262.342C118.343 262.018 118.789 261.542 119.088 260.913C119.337 260.387 119.427 259.875 119.356 259.378C119.276 258.884 119.096 258.417 118.817 257.978C118.535 257.546 118.213 257.146 117.853 256.778C117.49 256.417 117.148 256.102 116.828 255.832L115.081 254.344C114.632 253.966 114.149 253.509 113.633 252.973C113.11 252.434 112.657 251.823 112.275 251.138C111.882 250.457 111.648 249.709 111.57 248.894C111.493 248.079 111.673 247.209 112.112 246.285C112.617 245.22 113.353 244.39 114.319 243.795C115.278 243.197 116.411 242.897 117.717 242.895C119.016 242.89 120.423 243.247 121.937 243.965C123.349 244.635 124.464 245.442 125.281 246.388C126.091 247.33 126.599 248.349 126.802 249.444C127 250.536 126.881 251.639 126.447 252.754L123.983 251.585C124.272 250.81 124.314 250.076 124.109 249.381C123.894 248.69 123.506 248.066 122.945 247.509C122.374 246.955 121.698 246.493 120.915 246.121C120.004 245.689 119.115 245.449 118.25 245.4C117.382 245.358 116.61 245.502 115.934 245.834C115.255 246.172 114.745 246.701 114.404 247.419C114.093 248.074 114.024 248.693 114.195 249.278C114.366 249.862 114.689 250.424 115.164 250.963C115.639 251.503 116.177 252.034 116.779 252.555L118.876 254.398C120.206 255.571 121.125 256.782 121.634 258.029C122.143 259.277 122.083 260.565 121.453 261.893C120.929 262.997 120.174 263.818 119.188 264.356C118.192 264.898 117.079 265.156 115.849 265.131C114.61 265.109 113.361 264.8 112.103 264.203C110.833 263.601 109.811 262.837 109.039 261.913C108.264 260.995 107.773 260.008 107.567 258.951C107.354 257.891 107.468 256.856 107.908 255.846L110.218 256.942Z" fill="white"/>
<path d="M87.6696 239.483L89.745 241.118C89.3975 241.812 89.1992 242.506 89.15 243.199C89.0953 243.888 89.1646 244.558 89.3581 245.208C89.5416 245.858 89.834 246.469 90.2353 247.038C90.6367 247.607 91.1219 248.116 91.691 248.564C92.7287 249.382 93.8754 249.86 95.1309 249.999C96.3809 250.134 97.6563 249.887 98.9572 249.257C100.252 248.623 101.485 247.564 102.654 246.079C103.823 244.595 104.564 243.15 104.877 241.742C105.185 240.33 105.127 239.032 104.703 237.848C104.274 236.66 103.54 235.657 102.503 234.84C101.934 234.392 101.325 234.039 100.678 233.782C100.03 233.525 99.371 233.381 98.6997 233.349C98.0184 233.319 97.3491 233.411 96.6919 233.626C96.0246 233.841 95.3967 234.197 94.8081 234.691L92.7327 233.056C93.5789 232.303 94.4809 231.744 95.4388 231.377C96.3966 231.011 97.3736 230.826 98.3696 230.824C99.3613 230.828 100.338 231.005 101.3 231.356C102.257 231.703 103.167 232.217 104.032 232.898C105.494 234.05 106.513 235.431 107.088 237.042C107.664 238.652 107.759 240.373 107.375 242.204C106.99 244.035 106.086 245.854 104.662 247.662C103.238 249.469 101.681 250.774 99.9912 251.577C98.3012 252.379 96.6058 252.689 94.9052 252.507C93.2045 252.324 91.6233 251.657 90.1615 250.506C89.2968 249.825 88.5839 249.06 88.0229 248.211C87.4564 247.358 87.0574 246.447 86.8261 245.478C86.5904 244.515 86.5386 243.524 86.6707 242.507C86.7984 241.496 87.1314 240.488 87.6696 239.483Z" fill="white"/>
<path d="M93.9594 224.376L76.9826 238.081L72.3519 232.345C71.2812 231.018 70.6289 229.747 70.395 228.53C70.1556 227.317 70.2632 226.19 70.7178 225.148C71.1724 224.105 71.8999 223.18 72.9001 222.373C73.9004 221.565 74.9524 221.054 76.0562 220.838C77.16 220.622 78.2743 220.759 79.3989 221.248C80.5181 221.741 81.6085 222.645 82.6703 223.96L86.4177 228.602L84.5609 230.101L80.867 225.525C80.1354 224.619 79.4139 223.997 78.7025 223.658C77.9866 223.314 77.2852 223.214 76.5981 223.358C75.9011 223.501 75.2127 223.847 74.5329 224.395C73.8532 224.944 73.3617 225.551 73.0585 226.215C72.7553 226.88 72.6909 227.603 72.8651 228.384C73.0339 229.17 73.4885 230.021 74.2291 230.939L77.1467 234.553L92.2998 222.32L93.9594 224.376ZM79.8822 222.542L84.1358 212.207L86.063 214.595L81.7559 224.863L79.8822 222.542Z" fill="white"/>
<path d="M64.2798 197.284C66.3471 196.273 68.3161 195.773 70.1869 195.783C72.0577 195.793 73.7196 196.249 75.1727 197.152C76.6258 198.054 77.7611 199.341 78.5784 201.013C79.3958 202.684 79.7143 204.371 79.534 206.072C79.3537 207.773 78.6932 209.364 77.5524 210.847C76.4116 212.33 74.8076 213.577 72.7403 214.587C70.673 215.598 68.704 216.098 66.8332 216.088C64.9625 216.078 63.3005 215.622 61.8474 214.719C60.3943 213.817 59.2591 212.53 58.4417 210.858C57.6244 209.187 57.3059 207.5 57.4861 205.799C57.6664 204.098 58.327 202.507 59.4678 201.024C60.6085 199.541 62.2126 198.294 64.2798 197.284ZM65.4029 199.581C63.7057 200.41 62.4121 201.395 61.5221 202.533C60.6291 203.666 60.1182 204.86 59.9895 206.117C59.8576 207.367 60.0819 208.586 60.6621 209.773C61.2424 210.959 62.0679 211.888 63.1387 212.558C64.2065 213.222 65.4629 213.552 66.9082 213.549C68.3504 213.54 69.92 213.12 71.6172 212.29C73.3144 211.461 74.6096 210.479 75.5027 209.347C76.3926 208.208 76.9035 207.014 77.0354 205.764C77.1641 204.507 76.9383 203.285 76.358 202.098C75.7778 200.912 74.9538 199.986 73.8861 199.322C72.8152 198.652 71.5588 198.322 70.1166 198.331C68.6713 198.334 67.1001 198.751 65.4029 199.581Z" fill="white"/>
<path d="M72.8168 187.339L51.575 192.321L50.9717 189.749L69.9317 185.302L67.616 175.428L69.8978 174.893L72.8168 187.339Z" fill="white"/>
<path d="M69.2106 167.021L47.3928 167.151L47.3771 164.509L66.8512 164.393L66.7907 154.251L69.1344 154.237L69.2106 167.021Z" fill="white"/>
<path d="M77.4493 123.025L74.5642 129.109L54.8506 119.76L57.8635 113.407C58.7704 111.494 59.9411 110.045 61.3756 109.059C62.8037 108.07 64.4245 107.561 66.2379 107.533C68.0449 107.502 69.9688 107.97 72.0095 108.938C74.063 109.912 75.6574 111.116 76.7928 112.551C77.9218 113.982 78.5525 115.586 78.6848 117.362C78.8106 119.136 78.3988 121.023 77.4493 123.025ZM73.5786 125.717L75.2586 122.175C76.0316 120.545 76.3578 119.045 76.2371 117.675C76.1165 116.305 75.6002 115.082 74.6882 114.005C73.7763 112.928 72.5181 112.009 70.9138 111.248C69.3224 110.493 67.8291 110.103 66.4339 110.078C65.0323 110.05 63.7784 110.407 62.6724 111.148C61.56 111.886 60.6385 113.025 59.9081 114.565L58.1004 118.377L73.5786 125.717Z" fill="white"/>
<path d="M86.6046 89.5415C88.4122 90.9655 89.7173 92.5225 90.5197 94.2125C91.3222 95.9025 91.6322 97.5978 91.4497 99.2985C91.2672 100.999 90.6003 102.58 89.4488 104.042C88.2973 105.504 86.9162 106.522 85.3055 107.098C83.6947 107.674 81.974 107.769 80.1431 107.385C78.3122 107 76.4929 106.096 74.6853 104.672C72.8777 103.248 71.5727 101.691 70.7702 100.001C69.9678 98.3111 69.6578 96.6157 69.8403 94.915C70.0227 93.2143 70.6897 91.6331 71.8412 90.1714C72.9927 88.7097 74.3738 87.6911 75.9845 87.1155C77.5952 86.5399 79.316 86.4444 81.1469 86.8288C82.9777 87.2133 84.797 88.1175 86.6046 89.5415ZM85.0224 91.55C83.5384 90.3809 82.0903 89.6425 80.6782 89.3348C79.2704 89.0214 77.9725 89.0794 76.7844 89.5087C75.6008 89.9325 74.6002 90.6632 73.7827 91.7009C72.9652 92.7386 72.4869 93.8852 72.3477 95.1408C72.2129 96.3908 72.4604 97.6662 73.0902 98.967C73.7244 100.262 74.7835 101.494 76.2675 102.664C77.7516 103.833 79.1975 104.574 80.6052 104.887C82.0173 105.195 83.3152 105.137 84.4989 104.713C85.687 104.284 86.6898 103.55 87.5072 102.513C88.3247 101.475 88.8009 100.331 88.9357 99.0811C89.0749 97.8255 88.8274 96.5501 88.1932 95.2548C87.5634 93.954 86.5064 92.7191 85.0224 91.55Z" fill="white"/>
<path d="M97.8383 94.0727L79.4914 80.8434L81.5803 79.157L96.2902 90.1197L96.456 89.9859L88.9082 73.2415L91.2292 71.3678L106.005 82.2769L106.171 82.1431L98.5571 65.4522L100.646 63.7659L109.709 84.49L107.587 86.2031L92.9188 75.6995L92.7862 75.8066L99.9604 92.3596L97.8383 94.0727Z" fill="white"/>
<path d="M119.403 54.9082L128.986 74.5089L126.689 75.632L108.484 65.4646L108.292 65.5582L115.817 80.9479L113.443 82.1084L103.86 62.5077L106.157 61.3846L124.419 71.5715L124.611 71.4779L117.067 56.05L119.403 54.9082Z" fill="white"/>
<path d="M161.151 64.3124C160.532 64.3161 159.948 64.2031 159.402 63.9734C158.858 63.7437 158.377 63.4241 157.96 63.0147C157.545 62.6023 157.219 62.1256 156.98 61.5844C156.744 61.0432 156.625 60.4615 156.624 59.8393C156.623 59.2172 156.738 58.6341 156.967 58.0901C157.2 57.5461 157.521 57.0669 157.93 56.6525C158.34 56.2353 158.815 55.9086 159.356 55.6724C159.898 55.4362 160.478 55.3163 161.097 55.3126C161.719 55.3089 162.302 55.4219 162.846 55.6516C163.393 55.8813 163.872 56.2023 164.284 56.6146C164.698 57.0241 165.024 57.4994 165.26 58.0407C165.496 58.5819 165.617 59.1635 165.624 59.7857C165.631 60.4078 165.519 60.9909 165.289 61.5349C165.06 62.0789 164.74 62.5595 164.33 62.9767C163.921 63.3911 163.444 63.7164 162.9 63.9526C162.356 64.1888 161.773 64.3087 161.151 64.3124Z" fill="white"/>
<path d="M212.137 65.4128C212.484 64.3826 212.375 63.4032 211.809 62.4746C211.243 61.546 210.364 60.7987 209.17 60.2326C208.297 59.8187 207.467 59.5977 206.678 59.5697C205.896 59.5447 205.205 59.6925 204.605 60.0131C204.011 60.3368 203.565 60.8131 203.267 61.442C203.018 61.9682 202.928 62.48 202.999 62.9773C203.079 63.4712 203.259 63.9376 203.538 64.3766C203.82 64.8091 204.141 65.2091 204.502 65.5765C204.865 65.9374 205.207 66.2528 205.527 66.5225L207.273 68.0111C207.723 68.3893 208.206 68.8463 208.722 69.382C209.245 69.9207 209.697 70.5324 210.08 71.217C210.472 71.8982 210.707 72.6462 210.785 73.4611C210.862 74.2759 210.681 75.1454 210.243 76.0695C209.738 77.1347 209.002 77.9649 208.036 78.5601C207.077 79.1582 205.944 79.4582 204.638 79.46C203.339 79.4648 201.932 79.108 200.418 78.3898C199.006 77.7203 197.891 76.9127 197.074 75.9671C196.264 75.0245 195.756 74.0058 195.552 72.9108C195.355 71.8189 195.473 70.7156 195.908 69.601L198.372 70.7696C198.083 71.5445 198.041 72.2792 198.246 72.9739C198.461 73.6652 198.849 74.2893 199.41 74.8463C199.981 75.3999 200.657 75.8623 201.44 76.2336C202.351 76.6658 203.24 76.9062 204.105 76.9549C204.973 76.9972 205.745 76.8525 206.421 76.5207C207.1 76.1825 207.61 75.6541 207.951 74.9354C208.262 74.2808 208.331 73.6615 208.16 73.0773C207.989 72.4931 207.666 71.9312 207.191 71.3914C206.716 70.8517 206.178 70.3213 205.576 69.8001L203.479 67.9566C202.149 66.7834 201.229 65.5731 200.721 64.3256C200.212 63.0782 200.272 61.7902 200.902 60.4619C201.426 59.3581 202.181 58.5371 203.167 57.9987C204.163 57.457 205.276 57.1987 206.506 57.2239C207.745 57.2458 208.994 57.555 210.252 58.1515C211.522 58.7541 212.543 59.5175 213.316 60.4418C214.091 61.3597 214.582 62.347 214.788 63.4038C215.001 64.4637 214.887 65.4985 214.447 66.5084L212.137 65.4128Z" fill="white"/>
<path d="M234.685 82.8715L232.61 81.2365C232.957 80.5429 233.156 79.8493 233.205 79.1556C233.26 78.4664 233.19 77.7969 232.997 77.1473C232.813 76.4964 232.521 75.8863 232.12 75.317C231.718 74.7476 231.233 74.2388 230.664 73.7905C229.626 72.9731 228.48 72.4947 227.224 72.3555C225.974 72.2207 224.699 72.4682 223.398 73.098C222.103 73.7322 220.87 74.7913 219.701 76.2754C218.532 77.7594 217.791 79.2053 217.478 80.613C217.17 82.0251 217.228 83.323 217.652 84.5067C218.081 85.6948 218.814 86.6976 219.852 87.5151C220.421 87.9634 221.03 88.316 221.677 88.5729C222.325 88.8298 222.984 88.974 223.655 89.0056C224.337 89.036 225.006 88.9439 225.663 88.7293C226.33 88.5136 226.958 88.1583 227.547 87.6636L229.622 89.2986C228.776 90.0514 227.874 90.6112 226.916 90.9777C225.958 91.3443 224.981 91.5286 223.985 91.5305C222.994 91.5268 222.017 91.3495 221.055 90.9984C220.098 90.6518 219.187 90.1378 218.323 89.4566C216.861 88.3051 215.842 86.924 215.267 85.3133C214.691 83.7026 214.596 81.9818 214.98 80.1509C215.365 78.32 216.269 76.5008 217.693 74.6932C219.117 72.8855 220.674 71.5805 222.364 70.7781C224.054 69.9756 225.749 69.6656 227.45 69.8481C229.15 70.0305 230.732 70.6975 232.193 71.849C233.058 72.5302 233.771 73.2952 234.332 74.144C234.899 74.9972 235.298 75.9082 235.529 76.877C235.765 77.8403 235.816 78.8304 235.684 79.8475C235.557 80.8589 235.224 81.8669 234.685 82.8715Z" fill="white"/>
<path d="M228.396 97.9788L245.372 84.2739L250.003 90.0102C251.074 91.3365 251.726 92.6081 251.96 93.825C252.199 95.0374 252.092 96.1648 251.637 97.2072C251.182 98.2497 250.455 99.1746 249.455 99.9821C248.455 100.79 247.402 101.301 246.299 101.517C245.195 101.732 244.081 101.596 242.956 101.107C241.837 100.614 240.746 99.71 239.685 98.3947L235.937 93.7527L237.794 92.2537L241.488 96.8295C242.22 97.7358 242.941 98.3582 243.652 98.6967C244.368 99.0407 245.07 99.1407 245.757 98.9968C246.454 98.854 247.142 98.5082 247.822 97.9595C248.502 97.4107 248.993 96.8041 249.296 96.1394C249.6 95.4748 249.664 94.7519 249.49 93.9706C249.321 93.185 248.866 92.3334 248.126 91.4161L245.208 87.8019L230.055 100.035L228.396 97.9788ZM242.473 99.8133L238.219 110.148L236.292 107.76L240.599 97.4922L242.473 99.8133Z" fill="white"/>
<path d="M258.075 125.071C256.008 126.082 254.039 126.582 252.168 126.572C250.297 126.562 248.635 126.105 247.182 125.203C245.729 124.301 244.594 123.014 243.776 121.342C242.959 119.671 242.641 117.984 242.821 116.283C243.001 114.582 243.662 112.991 244.803 111.508C245.943 110.025 247.547 108.778 249.615 107.768C251.682 106.757 253.651 106.257 255.522 106.267C257.392 106.277 259.054 106.733 260.507 107.636C261.961 108.538 263.096 109.825 263.913 111.497C264.731 113.168 265.049 114.855 264.869 116.556C264.688 118.256 264.028 119.848 262.887 121.331C261.746 122.814 260.142 124.061 258.075 125.071ZM256.952 122.774C258.649 121.945 259.943 120.96 260.833 119.821C261.726 118.689 262.237 117.495 262.365 116.238C262.497 114.988 262.273 113.769 261.693 112.582C261.113 111.395 260.287 110.467 259.216 109.797C258.148 109.133 256.892 108.803 255.447 108.806C254.005 108.815 252.435 109.235 250.738 110.064C249.04 110.894 247.745 111.875 246.852 113.008C245.962 114.147 245.451 115.341 245.32 116.591C245.191 117.848 245.417 119.07 245.997 120.257C246.577 121.443 247.401 122.369 248.469 123.032C249.54 123.703 250.796 124.033 252.238 124.024C253.684 124.021 255.255 123.604 256.952 122.774Z" fill="white"/>
<path d="M249.538 135.016L270.78 130.034L271.383 132.606L252.423 137.053L254.739 146.927L252.457 147.462L249.538 135.016Z" fill="white"/>
<path d="M253.144 155.334L274.962 155.204L274.978 157.846L255.504 157.962L255.564 168.104L253.22 168.118L253.144 155.334Z" fill="white"/>
<path d="M244.906 199.329L247.791 193.246L267.504 202.595L264.491 208.948C263.584 210.86 262.414 212.31 260.979 213.296C259.551 214.285 257.93 214.794 256.117 214.822C254.31 214.853 252.386 214.385 250.345 213.417C248.292 212.443 246.697 211.239 245.562 209.804C244.433 208.373 243.802 206.769 243.67 204.992C243.544 203.219 243.956 201.331 244.906 199.329ZM248.776 196.637L247.096 200.18C246.323 201.81 245.997 203.31 246.118 204.679C246.238 206.049 246.755 207.273 247.667 208.35C248.579 209.427 249.837 210.346 251.441 211.107C253.032 211.862 254.526 212.251 255.921 212.276C257.323 212.304 258.576 211.948 259.682 211.207C260.795 210.469 261.716 209.33 262.447 207.79L264.254 203.978L248.776 196.637Z" fill="white"/>
<path d="M235.75 232.813C233.943 231.389 232.638 229.832 231.835 228.142C231.033 226.452 230.723 224.757 230.905 223.056C231.088 221.356 231.755 219.774 232.906 218.313C234.058 216.851 235.439 215.832 237.049 215.257C238.66 214.681 240.381 214.586 242.212 214.97C244.043 215.355 245.862 216.259 247.67 217.683C249.477 219.107 250.782 220.664 251.585 222.354C252.387 224.044 252.697 225.739 252.515 227.44C252.332 229.14 251.665 230.722 250.514 232.183C249.362 233.645 247.981 234.664 246.37 235.239C244.76 235.815 243.039 235.91 241.208 235.526C239.377 235.141 237.558 234.237 235.75 232.813ZM237.332 230.805C238.816 231.974 240.265 232.712 241.677 233.02C243.084 233.333 244.382 233.275 245.57 232.846C246.754 232.422 247.755 231.692 248.572 230.654C249.39 229.616 249.868 228.47 250.007 227.214C250.142 225.964 249.894 224.689 249.265 223.388C248.63 222.093 247.571 220.86 246.087 219.691C244.603 218.522 243.157 217.781 241.75 217.468C240.338 217.16 239.04 217.218 237.856 217.642C236.668 218.071 235.665 218.804 234.848 219.842C234.03 220.88 233.554 222.024 233.419 223.274C233.28 224.529 233.527 225.805 234.162 227.1C234.791 228.401 235.848 229.636 237.332 230.805Z" fill="white"/>
<path d="M224.517 228.282L242.863 241.511L240.774 243.198L226.065 232.235L225.899 232.369L233.447 249.113L231.126 250.987L216.349 240.078L216.184 240.212L223.798 256.903L221.709 258.589L212.646 237.865L214.768 236.152L229.436 246.655L229.569 246.548L222.394 229.995L224.517 228.282Z" fill="white"/>
<path d="M202.952 267.447L193.369 247.846L195.666 246.723L213.871 256.89L214.062 256.797L206.538 241.407L208.911 240.246L218.495 259.847L216.198 260.97L197.936 250.783L197.744 250.877L205.287 266.305L202.952 267.447Z" fill="white"/>
<path d="M161.204 259.042C161.823 259.039 162.407 259.152 162.953 259.381C163.497 259.611 163.978 259.931 164.395 260.34C164.81 260.753 165.136 261.229 165.375 261.77C165.612 262.312 165.73 262.893 165.731 263.516C165.732 264.138 165.617 264.721 165.388 265.265C165.155 265.809 164.834 266.288 164.425 266.702C164.015 267.12 163.54 267.446 162.999 267.682C162.457 267.919 161.877 268.039 161.258 268.042C160.636 268.046 160.053 267.933 159.509 267.703C158.962 267.474 158.483 267.153 158.071 266.74C157.657 266.331 157.331 265.855 157.095 265.314C156.859 264.773 156.738 264.191 156.731 263.569C156.725 262.947 156.836 262.364 157.066 261.82C157.296 261.276 157.615 260.795 158.025 260.378C158.434 259.964 158.911 259.639 159.455 259.402C159.999 259.166 160.582 259.046 161.204 259.042Z" fill="white"/>
<rect x="130.488" y="132.496" width="52.9765" height="57" rx="26.4882" stroke="white"/>
<rect x="138.511" y="132.495" width="52.9765" height="57" rx="26.4882" stroke="white"/>
</svg>
